<?xml version="1.0" standalone="no"?>
<!DOCTYPE svg PUBLIC "-//W3C//DTD SVG 20010904//EN"
 "http://www.w3.org/TR/2001/REC-SVG-20010904/DTD/svg10.dtd">
<svg version="1.0" xmlns="http://www.w3.org/2000/svg"
 width="3000.000000pt" height="3000.000000pt" viewBox="0 0 3000.000000 3000.000000"
 preserveAspectRatio="xMidYMid meet">

<g transform="translate(0.000000,3000.000000) scale(0.100000,-0.100000)"
fill="#000000" stroke="none">
<path d="M3640 23190 l0 -3180 3175 0 3175 0 0 3180 0 3180 -3175 0 -3175 0 0
-3180z m5450 0 l0 -2270 -2270 0 -2270 0 0 2270 0 2270 2270 0 2270 0 0 -2270z"/>
<path d="M5450 23190 l0 -1360 1360 0 1360 0 0 1360 0 1360 -1360 0 -1360 0 0
-1360z"/>
<path d="M20010 23190 l0 -3180 3175 0 3175 0 0 3180 0 3180 -3175 0 -3175 0
0 -3180z m5450 0 l0 -2270 -2270 0 -2270 0 0 2270 0 2270 2270 0 2270 0 0
-2270z"/>
<path d="M21820 23190 l0 -1360 1360 0 1360 0 0 1360 0 1360 -1360 0 -1360 0
0 -1360z"/>
<path d="M11820 25905 l0 -455 -455 0 -455 0 0 -450 0 -450 455 0 455 0 0
-455 0 -455 -455 0 -455 0 0 -455 0 -455 910 0 910 0 0 -1365 0 -1365 455 0
455 0 0 1365 0 1365 455 0 455 0 0 -455 0 -455 450 0 450 0 0 455 0 455 455 0
455 0 0 -1820 0 -1820 -455 0 -455 0 0 910 0 910 -450 0 -450 0 0 -1365 0
-1365 905 0 905 0 0 -455 0 -455 -1360 0 -1360 0 0 -455 0 -455 -455 0 -455 0
0 910 0 910 455 0 455 0 0 455 0 455 -2275 0 -2275 0 0 -455 0 -455 455 0 455
0 0 -455 0 -455 -1365 0 -1365 0 0 455 0 455 455 0 455 0 0 455 0 455 -2270 0
-2270 0 0 -910 0 -910 455 0 455 0 0 455 0 455 450 0 450 0 0 -455 0 -455 455
0 455 0 0 -455 0 -455 455 0 455 0 0 -455 0 -455 455 0 455 0 0 -450 0 -450
910 0 910 0 0 -455 0 -455 -1365 0 -1365 0 0 455 0 455 -455 0 -455 0 0 450 0
450 -455 0 -455 0 0 455 0 455 -905 0 -905 0 0 -2725 0 -2725 455 0 455 0 0
1820 0 1820 905 0 905 0 0 -455 0 -455 -455 0 -455 0 0 -1365 0 -1365 910 0
910 0 0 455 0 455 -455 0 -455 0 0 910 0 910 455 0 455 0 0 -455 0 -455 455 0
455 0 0 -910 0 -910 910 0 910 0 0 455 0 455 455 0 455 0 0 -1365 0 -1365 455
0 455 0 0 455 0 455 455 0 455 0 0 -910 0 -910 -910 0 -910 0 0 -2270 0 -2270
1365 0 1365 0 0 455 0 455 -455 0 -455 0 0 450 0 450 -455 0 -455 0 0 455 0
455 455 0 455 0 0 910 0 910 455 0 455 0 0 -455 0 -455 455 0 455 0 0 -455 0
-455 450 0 450 0 0 -455 0 -455 -450 0 -450 0 0 -905 0 -905 450 0 450 0 0
455 0 455 455 0 455 0 0 -455 0 -455 910 0 910 0 0 455 0 455 910 0 910 0 0
-455 0 -455 3180 0 3180 0 0 2270 0 2270 -1360 0 -1360 0 0 455 0 455 1360 0
1360 0 0 455 0 455 -905 0 -905 0 0 910 0 910 -455 0 -455 0 0 1365 0 1365
455 0 455 0 0 -910 0 -910 450 0 450 0 0 -455 0 -455 455 0 455 0 0 910 0 910
-455 0 -455 0 0 455 0 455 455 0 455 0 0 1360 0 1360 -455 0 -455 0 0 910 0
910 -450 0 -450 0 0 -1365 0 -1365 450 0 450 0 0 -455 0 -455 -905 0 -905 0 0
-450 0 -450 -455 0 -455 0 0 905 0 905 455 0 455 0 0 455 0 455 -910 0 -910 0
0 910 0 910 -455 0 -455 0 0 -910 0 -910 -1820 0 -1820 0 0 1820 0 1820 455 0
455 0 0 -910 0 -910 455 0 455 0 0 -455 0 -455 455 0 455 0 0 455 0 455 -455
0 -455 0 0 1820 0 1820 -455 0 -455 0 0 455 0 455 -455 0 -455 0 0 455 0 455
455 0 455 0 0 450 0 450 455 0 455 0 0 455 0 455 -455 0 -455 0 0 -455 0 -455
-455 0 -455 0 0 -450 0 -450 -455 0 -455 0 0 -455 0 -455 -455 0 -455 0 0
-455 0 -455 -450 0 -450 0 0 910 0 910 450 0 450 0 0 450 0 450 -905 0 -905 0
0 -450 0 -450 -455 0 -455 0 0 905 0 905 -455 0 -455 0 0 -455z m1820 -2720
l0 -455 -455 0 -455 0 0 455 0 455 455 0 455 0 0 -455z m4540 -910 l0 -455
-455 0 -455 0 0 455 0 455 455 0 455 0 0 -455z m-6360 -5460 l0 -455 -455 0
-455 0 0 455 0 455 455 0 455 0 0 -455z m10000 0 l0 -455 -455 0 -455 0 0 455
0 455 455 0 455 0 0 -455z m-11820 -910 l0 -455 455 0 455 0 0 -450 0 -450
-455 0 -455 0 0 450 0 450 -455 0 -455 0 0 455 0 455 455 0 455 0 0 -455z
m7270 0 l0 -455 -910 0 -910 0 0 -450 0 -450 455 0 455 0 0 -455 0 -455 -455
0 -455 0 0 -455 0 -455 455 0 455 0 0 -910 0 -910 -455 0 -455 0 0 -455 0
-455 -905 0 -905 0 0 910 0 910 -910 0 -910 0 0 455 0 455 -910 0 -910 0 0
-455 0 -455 -455 0 -455 0 0 455 0 455 455 0 455 0 0 455 0 455 910 0 910 0 0
455 0 455 455 0 455 0 0 450 0 450 455 0 455 0 0 -450 0 -450 455 0 455 0 0
905 0 905 1360 0 1360 0 0 -455z m1820 -905 l0 -450 910 0 910 0 0 450 0 450
455 0 455 0 0 -450 0 -450 455 0 455 0 0 -910 0 -910 -910 0 -910 0 0 455 0
455 -455 0 -455 0 0 -455 0 -455 -455 0 -455 0 0 910 0 910 -455 0 -455 0 0
-455 0 -455 -455 0 -455 0 0 455 0 455 455 0 455 0 0 450 0 450 455 0 455 0 0
-450z m-910 -3635 l0 -455 -455 0 -455 0 0 455 0 455 455 0 455 0 0 -455z
m5460 0 l0 -455 -455 0 -455 0 0 455 0 455 455 0 455 0 0 -455z m-1820 -1820
l0 -1365 -1365 0 -1365 0 0 1365 0 1365 1365 0 1365 0 0 -1365z m-3640 -455
l0 -910 -455 0 -455 0 0 -910 0 -910 455 0 455 0 0 -455 0 -455 -455 0 -455 0
0 -450 0 -450 -455 0 -455 0 0 450 0 450 455 0 455 0 0 455 0 455 -455 0 -455
0 0 455 0 455 -905 0 -905 0 0 910 0 910 905 0 905 0 0 455 0 455 910 0 910 0
0 -910z m3640 -2275 l0 -455 455 0 455 0 0 455 0 455 455 0 455 0 0 -910 0
-910 455 0 455 0 0 455 0 455 450 0 450 0 0 -905 0 -905 -905 0 -905 0 0 450
0 450 -910 0 -910 0 0 455 0 455 -455 0 -455 0 0 -455 0 -455 -910 0 -910 0 0
455 0 455 910 0 910 0 0 455 0 455 455 0 455 0 0 -455z"/>
<path d="M12730 14095 l0 -455 -455 0 -455 0 0 -455 0 -455 910 0 910 0 0 910
0 910 -455 0 -455 0 0 -455z"/>
<path d="M14550 14095 l0 -455 450 0 450 0 0 455 0 455 -450 0 -450 0 0 -455z"/>
<path d="M14550 11820 l0 -910 450 0 450 0 0 910 0 910 -450 0 -450 0 0 -910z"/>
<path d="M20000 9545 l0 -455 455 0 455 0 0 455 0 455 -455 0 -455 0 0 -455z"/>
<path d="M10910 20910 l0 -910 455 0 455 0 0 910 0 910 -455 0 -455 0 0 -910z"/>
<path d="M22730 18635 l0 -455 455 0 455 0 0 455 0 455 -455 0 -455 0 0 -455z"/>
<path d="M3640 6820 l0 -3180 3175 0 3175 0 0 3180 0 3180 -3175 0 -3175 0 0
-3180z m5450 0 l0 -2270 -2270 0 -2270 0 0 2270 0 2270 2270 0 2270 0 0 -2270z"/>
<path d="M5450 6820 l0 -1360 1360 0 1360 0 0 1360 0 1360 -1360 0 -1360 0 0
-1360z"/>
</g>
</svg>
